<svg xmlns="http://www.w3.org/2000/svg" width="840" height="881" viewBox="0 0 840 881" version="1.1"><path d="M 92 42 C 66.492 42.613, 65.268 42.734, 59.314 45.222 C 42.476 52.260, 30.975 64.278, 24.347 81.763 C 21.842 88.370, 21.776 89.225, 20.944 126 C 19.832 175.175, 19.832 727.272, 20.945 763.500 C 21.702 788.151, 22.065 792.277, 23.978 798 C 28.367 811.131, 36.024 821.196, 47.428 828.824 C 60.701 837.701, 62.484 838.038, 102 839.142 C 149.428 840.466, 763.476 839.611, 771.248 838.209 C 779.011 836.810, 792.328 830.156, 798.788 824.450 C 805.102 818.872, 810.952 810.514, 815.816 800.122 L 819.383 792.500 819.441 446 C 819.488 170.450, 819.240 97.868, 818.230 91.531 C 814.960 71.022, 800.042 52.870, 780.280 45.355 C 774.410 43.122, 771.152 42.665, 756 41.945 C 735.872 40.989, 131.956 41.039, 92 42 M 399.861 165.521 C 342.489 173.349, 294.076 212.841, 275.089 267.301 C 265.576 294.584, 264.452 328.441, 272.089 357.600 C 284.893 406.485, 322.819 446.576, 371.774 462.978 C 389.762 469.004, 398.554 470.371, 419.500 470.399 C 436.215 470.422, 439.943 470.114, 450.500 467.845 C 480.575 461.379, 506.680 447.201, 528.462 425.500 C 550.304 403.740, 565.373 375.702, 570.672 346.961 C 573.218 333.151, 573.191 298.766, 570.626 287 C 564.072 256.945, 549.741 230.729, 527.988 209 C 503.453 184.491, 474.246 169.995, 440.301 165.477 C 427.233 163.737, 412.819 163.753, 399.861 165.521 M 305.500 533.955 C 251.955 536.523, 198.632 558.397, 163.435 592.233 C 144.144 610.778, 134.725 623.912, 124.860 646.018 C 114.299 669.686, 113 679.755, 113 737.922 L 113 778 419.939 778 L 726.877 778 727.551 773.510 C 727.921 771.040, 728.002 751.577, 727.729 730.260 C 727.075 679.023, 725.028 666.369, 713.486 642.227 C 697.618 609.038, 672.856 583.167, 638.250 563.620 C 613.897 549.865, 575.433 537.454, 549.500 534.982 C 536.188 533.714, 328.749 532.841, 305.500 533.955" stroke="none" fill="#040404" fill-rule="evenodd"/><path d="M -0 440.501 L -0 881.002 420.250 880.751 L 840.500 880.500 840.751 440.250 L 841.002 0 420.501 0 L 0 0 -0 440.501 M 0.496 441 C 0.496 683.275, 0.610 782.387, 0.750 661.250 C 0.890 540.112, 0.890 341.887, 0.750 220.750 C 0.610 99.612, 0.496 198.725, 0.496 441 M 92 42 C 66.492 42.613, 65.268 42.734, 59.314 45.222 C 42.476 52.260, 30.975 64.278, 24.347 81.763 C 21.842 88.370, 21.776 89.225, 20.944 126 C 19.832 175.175, 19.832 727.272, 20.945 763.500 C 21.702 788.151, 22.065 792.277, 23.978 798 C 28.367 811.131, 36.024 821.196, 47.428 828.824 C 60.701 837.701, 62.484 838.038, 102 839.142 C 149.428 840.466, 763.476 839.611, 771.248 838.209 C 779.011 836.810, 792.328 830.156, 798.788 824.450 C 805.102 818.872, 810.952 810.514, 815.816 800.122 L 819.383 792.500 819.441 446 C 819.488 170.450, 819.240 97.868, 818.230 91.531 C 814.960 71.022, 800.042 52.870, 780.280 45.355 C 774.410 43.122, 771.152 42.665, 756 41.945 C 735.872 40.989, 131.956 41.039, 92 42 M 399.861 165.521 C 342.489 173.349, 294.076 212.841, 275.089 267.301 C 265.576 294.584, 264.452 328.441, 272.089 357.600 C 284.893 406.485, 322.819 446.576, 371.774 462.978 C 389.762 469.004, 398.554 470.371, 419.500 470.399 C 436.215 470.422, 439.943 470.114, 450.500 467.845 C 480.575 461.379, 506.680 447.201, 528.462 425.500 C 550.304 403.740, 565.373 375.702, 570.672 346.961 C 573.218 333.151, 573.191 298.766, 570.626 287 C 564.072 256.945, 549.741 230.729, 527.988 209 C 503.453 184.491, 474.246 169.995, 440.301 165.477 C 427.233 163.737, 412.819 163.753, 399.861 165.521 M 305.500 533.955 C 251.955 536.523, 198.632 558.397, 163.435 592.233 C 144.144 610.778, 134.725 623.912, 124.860 646.018 C 114.299 669.686, 113 679.755, 113 737.922 L 113 778 419.939 778 L 726.877 778 727.551 773.510 C 727.921 771.040, 728.002 751.577, 727.729 730.260 C 727.075 679.023, 725.028 666.369, 713.486 642.227 C 697.618 609.038, 672.856 583.167, 638.250 563.620 C 613.897 549.865, 575.433 537.454, 549.500 534.982 C 536.188 533.714, 328.749 532.841, 305.500 533.955" stroke="none" fill="#f3f3f3" fill-rule="evenodd"/></svg>