<svg xmlns="http://www.w3.org/2000/svg" width="273" height="263" viewBox="0 0 273 263" version="1.1"><path d="M 0 131.504 L 0 263.007 136.750 262.754 L 273.500 262.500 273.754 131.250 L 274.007 -0 137.004 -0 L 0 0 0 131.504 M 0.485 132 C 0.485 204.325, 0.604 233.913, 0.750 197.750 C 0.895 161.588, 0.895 102.413, 0.750 66.250 C 0.604 30.088, 0.485 59.675, 0.485 132 M 129 32.118 C 124.875 32.590, 117.518 34.113, 112.650 35.504 C 107.783 36.894, 100.511 39.552, 96.490 41.409 C 92.469 43.267, 86.024 46.829, 82.166 49.324 C 78.308 51.820, 71.719 57.123, 67.522 61.109 C 63.326 65.095, 57.650 71.314, 54.910 74.928 C 52.170 78.543, 47.699 86, 44.974 91.500 C 42.250 97, 38.897 105.470, 37.522 110.321 C 36.148 115.173, 34.515 123.273, 33.894 128.321 C 33.272 133.370, 33.036 141.431, 33.370 146.235 C 33.703 151.038, 34.866 159.049, 35.955 164.035 C 37.043 169.021, 39.782 177.427, 42.040 182.714 C 44.299 188.001, 47.744 194.840, 49.696 197.913 C 51.648 200.986, 55.297 205.975, 57.804 209 C 60.312 212.025, 64.869 216.884, 67.932 219.798 C 70.994 222.711, 77.150 227.549, 81.611 230.547 C 86.072 233.546, 92.597 237.302, 96.111 238.894 C 99.625 240.485, 106.325 242.941, 111 244.350 C 115.675 245.759, 123.550 247.442, 128.500 248.090 C 133.878 248.794, 142.146 249.020, 149.045 248.653 C 156.052 248.280, 164.359 247.083, 170.179 245.606 C 175.453 244.269, 183.083 241.726, 187.134 239.956 C 191.185 238.186, 197.453 234.836, 201.061 232.511 C 204.670 230.186, 210.635 225.467, 214.316 222.023 C 217.998 218.579, 223.100 213.003, 225.656 209.631 C 228.212 206.259, 232.500 198.927, 235.187 193.337 C 237.873 187.748, 241.263 178.748, 242.721 173.337 C 245.155 164.299, 245.375 161.876, 245.435 143.500 C 245.471 132.500, 245.177 122.713, 244.781 121.750 C 244.110 120.116, 240.692 120, 193.031 120 L 142 120 142 141.500 L 142 163 171.125 163 L 200.250 163 199.618 166.250 C 199.270 168.037, 197.566 172.425, 195.831 176 C 193.768 180.252, 190.398 184.748, 186.088 189 C 181.987 193.047, 177.047 196.697, 173 198.673 C 169.425 200.417, 163.800 202.536, 160.500 203.382 C 157.200 204.227, 150.900 205.197, 146.500 205.537 C 141.019 205.961, 135.981 205.664, 130.500 204.596 C 125.692 203.659, 119.114 201.367, 114.012 198.852 C 107.383 195.584, 103.756 192.898, 97.446 186.584 C 91.303 180.436, 88.384 176.533, 85.260 170.287 C 83.001 165.770, 80.387 158.630, 79.450 154.422 C 78.203 148.816, 77.882 144.059, 78.247 136.635 C 78.530 130.885, 79.498 124.337, 80.484 121.500 C 81.440 118.750, 83.511 113.889, 85.087 110.697 C 86.662 107.505, 90.076 102.189, 92.673 98.883 C 95.270 95.577, 100.112 90.830, 103.433 88.334 C 106.754 85.838, 111.658 82.687, 114.331 81.332 C 117.004 79.978, 122.596 77.999, 126.756 76.935 C 131.189 75.801, 137.685 75, 142.450 75 C 146.921 75, 153.262 75.692, 156.540 76.539 C 159.818 77.385, 165.200 79.349, 168.500 80.905 C 171.800 82.460, 176.525 85.332, 179 87.287 L 183.500 90.842 199.159 75.274 L 214.817 59.706 209.198 54.911 C 206.107 52.273, 200.308 48.245, 196.312 45.958 C 192.315 43.671, 185.997 40.560, 182.272 39.045 C 178.547 37.530, 172.575 35.562, 169 34.673 C 165.425 33.783, 158.450 32.597, 153.500 32.036 C 148.550 31.475, 142.700 31.071, 140.500 31.138 C 138.300 31.205, 133.125 31.646, 129 32.118" stroke="none" fill="#e8e9eb" fill-rule="evenodd"/><path d="M 125.500 32.717 C 123.850 32.947, 119.045 34.005, 114.823 35.070 C 110.600 36.134, 103.514 38.537, 99.074 40.409 C 94.635 42.282, 87.196 46.347, 82.543 49.443 C 77.889 52.539, 71.509 57.419, 68.364 60.286 C 65.219 63.154, 60.084 68.719, 56.951 72.654 C 53.819 76.589, 49.795 82.363, 48.009 85.485 C 46.207 88.633, 45.148 91.526, 45.631 91.981 C 46.109 92.432, 53.713 98.383, 62.530 105.205 C 71.346 112.028, 79.104 117.946, 79.769 118.357 C 80.584 118.861, 81.797 117.254, 83.488 113.432 C 84.868 110.312, 88.017 104.928, 90.486 101.468 C 92.954 98.008, 97.343 93.105, 100.237 90.572 C 103.132 88.038, 108.875 84.212, 113 82.069 C 117.125 79.926, 123.265 77.459, 126.644 76.586 C 130.088 75.697, 136.838 75, 142 75 C 147.179 75, 153.901 75.696, 157.356 76.591 C 160.735 77.466, 165.865 79.299, 168.755 80.666 C 171.646 82.032, 176.192 84.875, 178.859 86.983 L 183.708 90.816 199.104 75.342 L 214.500 59.868 210.019 55.843 C 207.555 53.630, 201.934 49.600, 197.528 46.889 C 193.122 44.178, 185.914 40.565, 181.509 38.860 C 177.104 37.156, 169.450 34.921, 164.500 33.894 C 157.999 32.545, 151.752 32.064, 142 32.163 C 134.575 32.238, 127.150 32.487, 125.500 32.717" stroke="none" fill="#ea4335" fill-rule="evenodd"/><path d="M 138.750 31.723 C 140.537 31.945, 143.463 31.945, 145.250 31.723 C 147.037 31.502, 145.575 31.320, 142 31.320 C 138.425 31.320, 136.963 31.502, 138.750 31.723 M 42.167 96.833 C 41.024 99.491, 38.948 105.598, 37.556 110.404 C 36.163 115.210, 34.515 123.273, 33.894 128.321 C 33.272 133.370, 33.036 141.431, 33.370 146.235 C 33.703 151.038, 34.854 158.991, 35.927 163.907 C 37 168.822, 39.297 176.254, 41.032 180.422 C 42.767 184.590, 44.643 188, 45.200 188 C 45.757 188, 54.072 181.882, 63.677 174.405 C 74.412 166.047, 80.948 160.307, 80.641 159.506 C 80.366 158.789, 79.599 155.450, 78.937 152.087 C 78.228 148.484, 77.943 141.970, 78.242 136.235 C 78.521 130.881, 79.426 124.595, 80.252 122.267 C 81.078 119.939, 81.429 118.235, 81.031 118.481 C 80.632 118.727, 72.481 112.870, 62.917 105.464 C 53.353 98.059, 45.239 92, 44.887 92 C 44.535 92, 43.311 94.175, 42.167 96.833" stroke="none" fill="#fbbc05" fill-rule="evenodd"/><path d="M 64 174.171 C 54.925 181.281, 46.825 187.498, 46 187.986 C 44.711 188.749, 44.852 189.524, 47 193.483 C 48.375 196.018, 51.749 201.097, 54.497 204.769 C 57.245 208.441, 62.607 214.517, 66.413 218.270 C 70.218 222.023, 77.020 227.548, 81.527 230.547 C 86.034 233.546, 92.597 237.302, 96.111 238.894 C 99.625 240.485, 106.325 242.941, 111 244.350 C 115.675 245.759, 123.550 247.442, 128.500 248.090 C 133.878 248.794, 142.146 249.020, 149.045 248.653 C 156.052 248.280, 164.359 247.083, 170.179 245.606 C 175.453 244.269, 183.083 241.726, 187.134 239.956 C 191.185 238.186, 197.425 234.823, 201 232.482 C 204.575 230.142, 208.956 226.938, 210.735 225.363 L 213.970 222.500 198.455 210.500 C 189.922 203.900, 182.048 197.879, 180.957 197.119 C 179.204 195.899, 178.248 196.094, 172.737 198.792 C 169.307 200.471, 163.800 202.536, 160.500 203.382 C 157.200 204.227, 150.900 205.197, 146.500 205.537 C 141.019 205.961, 135.981 205.664, 130.500 204.596 C 125.692 203.659, 119.114 201.367, 114.012 198.852 C 107.383 195.584, 103.756 192.898, 97.446 186.584 C 91.224 180.358, 88.395 176.554, 85.133 170.032 C 82.804 165.375, 80.808 161.492, 80.699 161.404 C 80.590 161.316, 73.075 167.060, 64 174.171" stroke="none" fill="#34a853" fill-rule="evenodd"/><path d="M 142 141.500 L 142 163 171.125 163 L 200.250 163 199.618 166.250 C 199.270 168.037, 197.566 172.425, 195.831 176 C 193.758 180.273, 190.383 184.767, 185.983 189.114 L 179.290 195.728 196.162 208.864 C 205.442 216.089, 213.432 222, 213.917 222 C 214.402 222, 217.108 219.474, 219.930 216.387 C 222.751 213.299, 226.440 208.767, 228.127 206.315 C 229.814 203.863, 233.199 197.626, 235.648 192.456 C 238.097 187.285, 241.287 178.655, 242.736 173.277 C 245.152 164.308, 245.375 161.848, 245.435 143.500 C 245.471 132.500, 245.177 122.713, 244.781 121.750 C 244.110 120.116, 240.692 120, 193.031 120 L 142 120 142 141.500" stroke="none" fill="#4285f4" fill-rule="evenodd"/></svg>