<svg xmlns="http://www.w3.org/2000/svg" width="560" height="255" viewBox="0 0 560 255" version="1.1"><path d="M 0 127.502 L 0 255.004 280.250 254.752 L 560.500 254.500 560.754 127.250 L 561.008 -0 280.504 -0 L 0 0 0 127.502 M 0.485 128 C 0.485 198.125, 0.604 226.813, 0.750 191.750 C 0.896 156.688, 0.896 99.313, 0.750 64.250 C 0.604 29.188, 0.485 57.875, 0.485 128 M 295.080 16.714 C 294.520 18.796, 293.446 23.200, 292.692 26.500 L 291.322 32.500 283.411 32.170 C 259.366 31.166, 237.549 43.913, 227.126 65.058 C 216.336 86.944, 218.176 109.231, 232.312 127.912 C 237.548 134.830, 237.559 135.034, 232.999 141 C 231.337 143.174, 230.824 143.337, 229.058 142.250 C 227.941 141.563, 226.623 141, 226.129 141 C 224.939 141, 182.277 208.886, 180.294 213.935 C 177.376 221.362, 180.306 230.081, 187.587 235.634 C 190.974 238.218, 192.106 238.500, 199.079 238.500 C 211.137 238.500, 210.902 238.780, 234.364 196.390 C 254.204 160.544, 255.997 157.013, 254.367 156.985 C 253.890 156.976, 252.880 156.577, 252.123 156.097 C 250.995 155.383, 251.170 154.469, 253.091 151.053 C 254.953 147.740, 255.854 147.001, 257.468 147.464 C 258.585 147.785, 260.738 148.319, 262.250 148.649 C 263.762 148.980, 265 149.582, 265 149.987 C 265 150.393, 263.650 153.999, 262 158 C 260.350 162.001, 259 165.663, 259 166.138 C 259 166.612, 261.182 167, 263.849 167 C 266.516 167, 272.141 167.291, 276.349 167.647 L 284 168.293 284 174.647 C 284 178.141, 284.113 181.008, 284.250 181.019 C 284.387 181.029, 291.250 181.947, 299.500 183.059 C 316.582 185.361, 349.745 186.702, 355 185.304 C 358.273 184.433, 358.834 183.633, 363.661 172.936 C 372.814 152.653, 380.210 128.344, 383.995 106.100 C 387.553 85.184, 388.997 60.556, 387.364 48.640 C 386.757 44.210, 386.582 44, 383.500 44 L 380.273 44 379.774 34.471 C 379.500 29.230, 379.022 24.689, 378.712 24.378 C 378.402 24.068, 361.127 21.622, 340.324 18.941 C 319.521 16.261, 301.059 13.811, 299.298 13.498 C 296.279 12.960, 296.039 13.143, 295.080 16.714 M 300.558 22.250 C 299.828 24.651, 298 32.893, 298 33.779 C 298 34.271, 301.766 36.539, 306.369 38.820 C 330.016 50.538, 343.135 76.161, 338.610 101.795 C 335.107 121.643, 322.669 137.766, 304.500 146.011 C 296.391 149.690, 289.560 151.172, 279.880 151.350 L 271.764 151.500 269.898 156.250 L 268.033 161 277.267 161.083 C 282.345 161.129, 300.379 161.691, 317.342 162.333 L 348.184 163.500 351.650 157.299 C 365.588 132.369, 372.963 94.694, 372.990 48.295 L 373 30.091 369.750 29.519 C 364.183 28.541, 305.041 21, 302.934 21 C 301.836 21, 300.766 21.563, 300.558 22.250 M 267.734 40.417 C 265.112 41.122, 262.829 41.879, 262.659 42.100 C 262.489 42.320, 261.573 47.900, 260.625 54.500 C 257.108 78.969, 250.113 104.812, 243.377 118.225 C 239.130 126.682, 239.007 128.501, 242.750 127.492 C 252.278 124.925, 259 128.713, 259 136.648 L 259 140.923 264.250 142.503 C 282.669 148.047, 301.965 143.448, 316.214 130.118 C 322.847 123.914, 328.709 114.537, 330.821 106.750 L 331.839 103 292.919 103 C 267.640 103, 254 102.650, 254 102 C 254 101.350, 267.631 101, 292.893 101 C 334.856 101, 333 101.235, 333 95.918 C 333 94.061, 331.793 94, 295 94 C 270.333 94, 257 93.649, 257 93 C 257 92.351, 270.333 92, 295 92 L 333 92 333 88.559 C 333 86.666, 332.605 84.874, 332.123 84.576 C 331.640 84.278, 315.188 84.524, 295.563 85.123 C 275.937 85.723, 259.607 85.940, 259.273 85.607 C 258.940 85.273, 258.918 84.749, 259.224 84.443 C 259.531 84.136, 275.918 83.410, 295.641 82.830 C 315.363 82.249, 331.657 81.630, 331.850 81.454 C 332.042 81.278, 331.654 79.481, 330.987 77.462 L 329.775 73.790 296.388 74.525 C 274.901 74.998, 263 74.913, 263 74.286 C 263 73.145, 287.016 72.008, 311.250 72.003 C 323.987 72.001, 327.998 71.700, 327.991 70.750 C 327.948 65.120, 313.539 49.547, 303.963 44.782 C 292.848 39.251, 278.497 37.522, 267.734 40.417 M 250.500 47.798 C 240.171 54.372, 230.492 68.495, 227.961 80.689 C 225.568 92.215, 228.224 109.588, 233.642 117.858 L 235.345 120.457 238.115 114.254 C 242.244 105.006, 246.620 91.251, 249.430 78.683 C 252.323 65.747, 255.232 48.303, 254.798 46.495 C 254.595 45.648, 253.227 46.062, 250.500 47.798 M 380.116 56.550 C 379.761 75.055, 376.008 106.226, 372.416 120.497 C 368.281 136.925, 362.382 151.972, 355.636 163.298 L 351.500 170.243 330 169.604 C 318.175 169.252, 304.563 168.689, 299.750 168.353 L 291 167.742 291 171.352 C 291 175.651, 290.290 175.411, 309 177.427 C 328.837 179.563, 343.082 180.314, 348.818 179.525 L 353.885 178.828 358.355 168.164 C 367.337 146.739, 373.775 125.121, 378.060 102 C 380.129 90.837, 381.947 57.252, 380.740 52.500 C 380.461 51.400, 380.180 53.223, 380.116 56.550 M 409.353 61.376 C 395.278 65.966, 387.229 79.118, 388.202 95.935 C 389.042 110.442, 395.406 119.419, 415.495 134.433 C 421.555 138.961, 428.037 144.191, 429.899 146.053 C 436.128 152.282, 437.501 159.097, 434.057 166.684 C 429.811 176.034, 416.650 176.619, 411.813 167.672 C 411.167 166.478, 410.382 162.575, 410.069 159 L 409.500 152.500 399 152.500 L 388.500 152.500 388.597 160.575 C 388.759 174.153, 395.152 184.370, 406.933 189.884 C 411.767 192.146, 413.817 192.489, 422.500 192.489 C 431.204 192.489, 433.213 192.151, 438 189.882 C 447.261 185.491, 452.571 179.063, 456.075 168 C 457.288 164.171, 457.845 163.281, 457.909 165.072 C 458.121 171.061, 461.373 177.521, 467.020 183.174 C 471.841 188, 473.775 189.178, 479.967 191.059 C 497.729 196.454, 514.941 189.997, 522.215 175.209 C 525.299 168.940, 525.500 167.887, 525.493 158.016 C 525.487 148.580, 525.214 146.983, 522.836 142.466 C 519.269 135.692, 514.734 131.212, 499.383 119.297 C 484.348 107.628, 480.509 103.603, 478.973 97.901 C 475.228 83.992, 488.020 72.935, 498.405 81.104 C 502.171 84.066, 503.290 86.677, 503.931 94 L 504.500 100.500 514.874 100.786 L 525.248 101.073 524.824 92.206 C 524.304 81.316, 521.155 74.067, 514.341 68.069 C 507.251 61.828, 500.474 59.728, 489 60.218 C 478.057 60.684, 472.135 63.095, 465.799 69.664 C 455.427 80.417, 454.195 100.129, 463.028 114 C 467 120.236, 471.510 124.421, 487.020 136.259 C 501.773 147.520, 504.956 151.510, 504.984 158.782 C 505.018 167.809, 499.617 173.988, 491.684 173.996 C 484.042 174.004, 479.933 169.148, 479.067 159.089 L 478.500 152.500 468.583 152.212 C 462.043 152.022, 458.429 152.305, 457.972 153.045 C 457.591 153.662, 456.737 151.991, 456.074 149.333 C 453.623 139.510, 447.364 132.212, 430.500 119.515 C 418.872 110.760, 412.122 104.306, 410.388 100.282 C 407.124 92.714, 410.094 82.607, 416.470 79.581 C 425.990 75.064, 434.924 82.869, 434.978 95.750 L 435 101 445.639 101 L 456.277 101 455.771 92.250 C 454.964 78.320, 449.103 68.644, 438.258 63.338 C 433.439 60.980, 431.106 60.513, 423.033 60.288 C 417.030 60.121, 411.964 60.524, 409.353 61.376 M 29.733 61.600 C 29.330 62.003, 29 91.235, 29 126.560 C 29 184.203, 29.162 190.848, 30.582 191.393 C 33.511 192.517, 48.547 192.053, 49.800 190.800 C 50.672 189.928, 51 182.422, 51 163.300 L 51 137 59.364 137 C 74.490 137, 82.488 134.512, 89.319 127.681 C 94.316 122.684, 97.689 115.242, 98.933 106.471 C 101.564 87.912, 93.538 70.108, 79.727 63.863 C 74.828 61.648, 73.120 61.480, 52.483 61.184 C 40.374 61.009, 30.136 61.197, 29.733 61.600 M 127.498 62.218 C 126.225 65.738, 99.419 190.085, 99.842 190.508 C 100.112 190.779, 104.930 191, 110.549 191 L 120.764 191 122.515 181.250 C 123.477 175.887, 124.479 170.938, 124.740 170.250 C 125.089 169.330, 128.991 169, 139.503 169 L 153.792 169 155.451 178.250 C 157.980 192.346, 156.595 191, 168.567 191 C 177.842 191, 178.998 190.806, 178.985 189.250 C 178.977 188.287, 172.766 159.150, 165.183 124.500 L 151.396 61.500 139.679 61.218 C 130.852 61.006, 127.847 61.252, 127.498 62.218 M 51 99.901 L 51 120 57.788 120 C 70.312 120, 76.456 114.670, 77.688 102.737 C 78.436 95.490, 76.021 87.353, 71.972 83.472 C 69.084 80.704, 68.258 80.476, 59.936 80.151 L 51 79.801 51 99.901 M 138.659 93 C 138.112 94.431, 128 149.690, 128 151.251 C 128 151.663, 132.950 152, 139 152 C 148.381 152, 150 151.766, 150 150.412 C 150 148.751, 140.196 94.240, 139.584 92.500 C 139.391 91.950, 138.975 92.175, 138.659 93 M 241.680 139.939 L 237.066 146.877 240.401 148.939 C 242.235 150.072, 244.190 151, 244.744 151 C 245.299 151, 247.403 147.858, 249.421 144.018 C 252.416 138.318, 252.892 136.666, 252.010 135.018 C 249.843 130.970, 246.624 132.503, 241.680 139.939 M 207.025 182.250 C 184.353 218.240, 183.551 220.148, 188.193 227 C 191.459 231.819, 197.263 233.837, 202.953 232.132 C 206.279 231.136, 207.757 229.856, 210.462 225.627 C 214.387 219.492, 246 161.845, 246 160.824 C 246 159.999, 229.632 150, 228.281 150 C 227.763 150, 218.198 164.512, 207.025 182.250" stroke="none" fill="#ffffff" fill-rule="evenodd"/><path d="M 410.500 61.343 C 401.179 64.422, 394.532 70.283, 390.804 78.710 C 387.938 85.190, 387.339 96.197, 389.452 103.550 C 392.788 115.155, 397.812 120.895, 417.907 136.062 C 432.040 146.729, 436 151.690, 436 158.728 C 436 168.141, 431.013 174, 423 174 C 415.002 174, 411.324 169.918, 409.487 159 L 408.393 152.500 398.775 152.215 C 387.574 151.883, 387.320 152.120, 388.453 161.858 C 390.063 175.681, 395.989 184.438, 407.200 189.560 C 412.569 192.013, 414.756 192.438, 422 192.435 C 432.811 192.429, 439.406 190.238, 445.733 184.551 C 451.371 179.481, 454.627 173.442, 456.396 164.775 L 457.676 158.500 458.237 164.679 C 459.258 175.929, 465.805 184.730, 476.954 189.839 C 484.069 193.100, 496.686 193.481, 504.720 190.680 C 511.652 188.262, 519.186 181.358, 522.700 174.203 C 525.200 169.111, 525.500 167.428, 525.500 158.500 C 525.500 150.336, 525.100 147.634, 523.321 143.783 C 520.295 137.232, 513.616 130.422, 500.078 120.080 C 481.416 105.826, 477.973 101.642, 478.022 93.282 C 478.088 81.960, 487.182 75.145, 496.393 79.516 C 500.951 81.679, 503.407 86.356, 503.998 94 L 504.500 100.500 514.891 100.787 L 525.282 101.073 524.773 92.287 C 523.958 78.220, 517.996 68.659, 506.500 62.984 C 502.149 60.836, 500.137 60.515, 491 60.508 C 481.510 60.501, 479.950 60.770, 474.786 63.306 C 463.074 69.057, 457.456 79.080, 457.558 94.041 C 457.608 101.397, 458.038 103.479, 460.651 109.041 C 464.707 117.673, 470.012 123.193, 485.396 134.784 C 501.420 146.857, 504.177 150.083, 504.790 157.485 C 505.627 167.573, 500.672 174, 492.058 174 C 483.985 174, 479 168.171, 479 158.732 C 479 156.349, 478.460 153.860, 477.800 153.200 C 477.048 152.448, 473.304 152, 467.768 152 C 459.615 152, 458.874 152.167, 458.132 154.173 C 457.481 155.932, 457.106 155.214, 456.158 150.395 C 454.087 139.871, 450.032 135.100, 429.617 119.169 C 413.002 106.203, 409.867 102.436, 409.222 94.660 C 408.368 84.366, 414.127 77.445, 422.812 78.329 C 430.298 79.091, 434.050 83.944, 434.931 94 L 435.500 100.500 445.500 100.500 L 455.500 100.500 455.403 92.425 C 455.242 78.993, 449.354 69.302, 437.717 63.317 C 433.415 61.104, 430.922 60.580, 423.500 60.327 C 417.911 60.137, 412.984 60.522, 410.500 61.343 M 29.747 61.586 C 29.336 61.997, 29 91.283, 29 126.667 L 29 191 39.484 191 L 49.968 191 50.234 163.750 L 50.500 136.500 64 135.960 C 79.244 135.350, 82.721 134.154, 89.072 127.335 C 96.964 118.861, 99.431 111.170, 98.768 97.113 C 97.992 80.693, 91.987 70.077, 80.214 64.314 C 74.567 61.550, 74.242 61.513, 52.497 61.178 C 40.395 60.992, 30.158 61.176, 29.747 61.586 M 128.231 62.250 C 127.228 63.486, 100 186.091, 100 189.370 C 100 190.878, 101.159 191.038, 110.250 190.785 L 120.500 190.500 122.541 180 L 124.582 169.500 139.214 169.224 L 153.847 168.947 154.924 174.474 C 155.516 177.513, 156.482 182.475, 157.071 185.500 L 158.142 191 168.571 191 C 176.075 191, 179 190.660, 179 189.788 C 179 186.916, 151.623 63.380, 150.736 62.250 C 150.065 61.395, 146.514 61, 139.500 61 C 132.503 61, 128.923 61.397, 128.231 62.250 M 51.100 80.380 C 50.307 81.335, 50.039 87.558, 50.227 100.630 L 50.500 119.500 59.180 119.500 C 66.443 119.500, 68.320 119.157, 70.680 117.395 C 74.960 114.201, 77.186 109.564, 77.730 102.704 C 78.695 90.556, 73.691 81.632, 64.970 79.949 C 58.214 78.646, 52.389 78.827, 51.100 80.380 M 133.193 121.250 C 130.323 137.338, 127.980 150.838, 127.987 151.250 C 127.994 151.662, 133.205 152, 139.567 152 C 150.119 152, 151.088 151.846, 150.605 150.250 C 150.079 148.511, 140 93.711, 140 92.588 C 140 92.264, 139.642 92, 139.205 92 C 138.768 92, 136.063 105.162, 133.193 121.250" stroke="none" fill="#313638" fill-rule="evenodd"/><path d="M 295.080 16.714 C 294.520 18.796, 293.446 23.200, 292.692 26.500 L 291.322 32.500 283.411 32.170 C 259.366 31.166, 237.549 43.913, 227.126 65.058 C 216.336 86.944, 218.176 109.231, 232.312 127.912 C 237.548 134.830, 237.559 135.034, 232.999 141 C 231.337 143.174, 230.824 143.337, 229.058 142.250 C 227.941 141.563, 226.623 141, 226.129 141 C 224.939 141, 182.277 208.886, 180.294 213.935 C 177.376 221.362, 180.306 230.081, 187.587 235.634 C 190.974 238.218, 192.106 238.500, 199.079 238.500 C 211.137 238.500, 210.902 238.780, 234.364 196.390 C 254.204 160.544, 255.997 157.013, 254.367 156.985 C 253.890 156.976, 252.880 156.577, 252.123 156.097 C 250.995 155.383, 251.170 154.469, 253.091 151.053 C 254.953 147.740, 255.854 147.001, 257.468 147.464 C 258.585 147.785, 260.738 148.319, 262.250 148.649 C 263.762 148.980, 265 149.582, 265 149.987 C 265 150.393, 263.650 153.999, 262 158 C 260.350 162.001, 259 165.663, 259 166.138 C 259 166.612, 261.182 167, 263.849 167 C 266.516 167, 272.141 167.291, 276.349 167.647 L 284 168.293 284 174.647 C 284 178.141, 284.113 181.008, 284.250 181.019 C 284.387 181.029, 291.250 181.947, 299.500 183.059 C 316.582 185.361, 349.745 186.702, 355 185.304 C 358.273 184.433, 358.834 183.633, 363.661 172.936 C 372.814 152.653, 380.210 128.344, 383.995 106.100 C 387.553 85.184, 388.997 60.556, 387.364 48.640 C 386.757 44.210, 386.582 44, 383.500 44 L 380.273 44 379.774 34.471 C 379.500 29.230, 379.022 24.689, 378.712 24.378 C 378.402 24.068, 361.127 21.622, 340.324 18.941 C 319.521 16.261, 301.059 13.811, 299.298 13.498 C 296.279 12.960, 296.039 13.143, 295.080 16.714 M 300.558 22.250 C 299.828 24.651, 298 32.893, 298 33.779 C 298 34.271, 301.766 36.539, 306.369 38.820 C 330.016 50.538, 343.135 76.161, 338.610 101.795 C 335.107 121.643, 322.669 137.766, 304.500 146.011 C 296.391 149.690, 289.560 151.172, 279.880 151.350 L 271.764 151.500 269.898 156.250 L 268.033 161 277.267 161.083 C 282.345 161.129, 300.379 161.691, 317.342 162.333 L 348.184 163.500 351.650 157.299 C 365.588 132.369, 372.963 94.694, 372.990 48.295 L 373 30.091 369.750 29.519 C 364.183 28.541, 305.041 21, 302.934 21 C 301.836 21, 300.766 21.563, 300.558 22.250 M 267.734 40.417 C 265.112 41.122, 262.829 41.879, 262.659 42.100 C 262.489 42.320, 261.573 47.900, 260.625 54.500 C 257.108 78.969, 250.113 104.812, 243.377 118.225 C 239.130 126.682, 239.007 128.501, 242.750 127.492 C 252.278 124.925, 259 128.713, 259 136.648 L 259 140.923 264.250 142.503 C 282.669 148.047, 301.965 143.448, 316.214 130.118 C 322.847 123.914, 328.709 114.537, 330.821 106.750 L 331.839 103 292.919 103 C 267.640 103, 254 102.650, 254 102 C 254 101.350, 267.631 101, 292.893 101 C 334.856 101, 333 101.235, 333 95.918 C 333 94.061, 331.793 94, 295 94 C 270.333 94, 257 93.649, 257 93 C 257 92.351, 270.333 92, 295 92 L 333 92 333 88.559 C 333 86.666, 332.605 84.874, 332.123 84.576 C 331.640 84.278, 315.188 84.524, 295.563 85.123 C 275.937 85.723, 259.607 85.940, 259.273 85.607 C 258.940 85.273, 258.918 84.749, 259.224 84.443 C 259.531 84.136, 275.918 83.410, 295.641 82.830 C 315.363 82.249, 331.657 81.630, 331.850 81.454 C 332.042 81.278, 331.654 79.481, 330.987 77.462 L 329.775 73.790 296.388 74.525 C 274.901 74.998, 263 74.913, 263 74.286 C 263 73.145, 287.016 72.008, 311.250 72.003 C 323.987 72.001, 327.998 71.700, 327.991 70.750 C 327.948 65.120, 313.539 49.547, 303.963 44.782 C 292.848 39.251, 278.497 37.522, 267.734 40.417 M 250.500 47.798 C 240.171 54.372, 230.492 68.495, 227.961 80.689 C 225.568 92.215, 228.224 109.588, 233.642 117.858 L 235.345 120.457 238.115 114.254 C 242.244 105.006, 246.620 91.251, 249.430 78.683 C 252.323 65.747, 255.232 48.303, 254.798 46.495 C 254.595 45.648, 253.227 46.062, 250.500 47.798 M 380.116 56.550 C 379.761 75.055, 376.008 106.226, 372.416 120.497 C 368.281 136.925, 362.382 151.972, 355.636 163.298 L 351.500 170.243 330 169.604 C 318.175 169.252, 304.563 168.689, 299.750 168.353 L 291 167.742 291 171.352 C 291 175.651, 290.290 175.411, 309 177.427 C 328.837 179.563, 343.082 180.314, 348.818 179.525 L 353.885 178.828 358.355 168.164 C 367.337 146.739, 373.775 125.121, 378.060 102 C 380.129 90.837, 381.947 57.252, 380.740 52.500 C 380.461 51.400, 380.180 53.223, 380.116 56.550 M 54.250 79.716 C 55.763 79.945, 58.237 79.945, 59.750 79.716 C 61.263 79.487, 60.025 79.300, 57 79.300 C 53.975 79.300, 52.737 79.487, 54.250 79.716 M 50.419 100 C 50.419 110.725, 50.566 115.112, 50.746 109.750 C 50.925 104.388, 50.925 95.612, 50.746 90.250 C 50.566 84.888, 50.419 89.275, 50.419 100 M 241.680 139.939 L 237.066 146.877 240.401 148.939 C 242.235 150.072, 244.190 151, 244.744 151 C 245.299 151, 247.403 147.858, 249.421 144.018 C 252.416 138.318, 252.892 136.666, 252.010 135.018 C 249.843 130.970, 246.624 132.503, 241.680 139.939 M 50.451 137.266 C 50.184 137.963, 50.094 150.225, 50.250 164.516 L 50.535 190.500 50.768 163.786 L 51 137.072 60.750 136.746 L 70.500 136.419 60.719 136.209 C 53.590 136.057, 50.805 136.343, 50.451 137.266 M 207.025 182.250 C 184.353 218.240, 183.551 220.148, 188.193 227 C 191.459 231.819, 197.263 233.837, 202.953 232.132 C 206.279 231.136, 207.757 229.856, 210.462 225.627 C 214.387 219.492, 246 161.845, 246 160.824 C 246 159.999, 229.632 150, 228.281 150 C 227.763 150, 218.198 164.512, 207.025 182.250 M 408.951 156.276 C 409.438 160.396, 409.459 160.417, 409.798 157.123 C 409.989 155.265, 409.765 153.365, 409.299 152.899 C 408.833 152.433, 408.677 153.953, 408.951 156.276 M 35.250 191.735 C 37.862 191.941, 42.138 191.941, 44.750 191.735 C 47.362 191.529, 45.225 191.360, 40 191.360 C 34.775 191.360, 32.638 191.529, 35.250 191.735" stroke="none" fill="#0c84df" fill-rule="evenodd"/></svg>