<svg width="125" height="57" viewBox="0 0 125 57" fill="none" xmlns="http://www.w3.org/2000/svg">
<path d="M9.33333 12.0107C10.9688 12.0107 12.4219 12.417 13.6875 13.2191C14.9479 14.0264 15.9271 15.167 16.625 16.6357C17.3333 18.0941 17.6875 19.7555 17.6875 21.6149C17.6875 24.4222 16.9427 26.6774 15.4583 28.3857C13.9844 30.0941 12.0312 30.9482 9.60417 30.9482H5.64583C5.48958 30.9482 5.41667 31.0264 5.41667 31.1774V44.1566C5.41667 44.3128 5.35938 44.443 5.25 44.5524C5.13542 44.667 5.00521 44.7191 4.85417 44.7191H0.5625C0.395833 44.7191 0.255208 44.667 0.145833 44.5524C0.0468747 44.443 0 44.3128 0 44.1566V12.5732C0 12.4066 0.0468747 12.2764 0.145833 12.1774C0.255208 12.068 0.395833 12.0107 0.5625 12.0107H9.33333ZM8.4375 26.6982C9.58854 26.6982 10.5104 26.2607 11.2083 25.3857C11.9167 24.5003 12.2708 23.292 12.2708 21.7607C12.2708 20.2087 11.9167 18.9691 11.2083 18.0524C10.5104 17.1357 9.58854 16.6774 8.4375 16.6774H5.64583C5.48958 16.6774 5.41667 16.7555 5.41667 16.9066V26.4691C5.41667 26.6253 5.48958 26.6982 5.64583 26.6982H8.4375Z" fill="#313638"/>
<path d="M32.8329 44.6979C32.4579 44.6979 32.2548 44.526 32.2287 44.1771L31.3329 39.2812C31.3329 39.1302 31.2391 39.0521 31.0621 39.0521H24.2496C24.0673 39.0521 23.9787 39.1302 23.9787 39.2812L23.0829 44.1771C23.0516 44.526 22.8537 44.6979 22.4787 44.6979H18.2287C17.7964 44.6979 17.6246 44.5 17.7079 44.0938L24.6246 12.5521C24.6766 12.2083 24.8798 12.0312 25.2287 12.0312H30.1662C30.51 12.0312 30.7183 12.2083 30.7912 12.5521L37.6871 44.0938V44.2812C37.6871 44.5625 37.51 44.6979 37.1662 44.6979H32.8329ZM24.8121 34.5729C24.7808 34.7292 24.8589 34.8021 25.0412 34.8021H30.2287C30.4058 34.8021 30.4839 34.7292 30.4579 34.5729L27.7496 19.8229C27.7183 19.7292 27.6714 19.6771 27.6037 19.6771C27.5464 19.6771 27.5048 19.7292 27.4787 19.8229L24.8121 34.5729Z" fill="#313638"/>
<path d="M81.3957 41.571C77.9033 42.2707 68.3996 41.0142 65.7322 40.6411V38.8453L80.7777 39.4021C86.5061 31.4144 87.9404 19.3104 88.0132 9.45406H88.2698C89.4096 24.3625 82.5618 39.1747 81.3957 41.571ZM60.9221 34.5454C70.0001 35.7464 77.8974 28.6799 77.8974 19.7331C77.8974 13.031 73.4459 7.34344 67.3385 5.45438L68.1985 1.82493L86.2437 4.16877C86.4419 8.01103 87.0279 27.3827 79.9439 37.72L59.9513 36.9825L60.9221 34.5454ZM54.1967 34.7582L52.1677 33.5454C54.3512 30.2221 54.3016 30.1084 54.8876 30.0005C55.7505 29.8431 56.4297 30.7497 55.9925 31.5369L54.1967 34.7582ZM43.3229 55.0044C40.466 55.6253 38.3029 52.4915 39.8363 50.0572L49.8676 34.0935L54.5786 36.9096C44.8301 54.5962 45.3053 54.57 43.3229 55.0044ZM56.7737 7.94398C56.319 11.5909 54.8497 21.3044 51.6692 26.8579C47.4684 20.2316 49.8763 11.5384 56.7737 7.94398ZM75.2212 14.6344L58.7473 15.0046L58.759 15.5556L75.437 15.1825C75.676 15.8384 75.8655 16.5206 75.9996 17.2231L57.7533 17.7304L57.7707 18.2843L76.0958 17.7712C76.1949 18.4504 76.2416 19.0947 76.2416 19.7506H57.2985V20.2987H76.227C76.2066 20.8526 76.1454 21.3919 76.0608 21.9225H56.3248V22.4734H75.9559C74.2242 30.706 65.292 35.2887 57.6162 31.9333C58.552 29.3446 55.4444 27.2019 53.3425 28.9773C53.1297 28.7586 52.9286 28.5342 52.7332 28.301C56.7271 21.937 58.2372 9.87094 58.5316 7.18602C65.2191 4.85093 72.5218 8.17136 75.2212 14.6344ZM89.7828 7.80696H88.0132C87.9899 5.52143 87.9112 4.11629 87.8063 2.71115L66.9333 0L65.7322 5.06082C51.1911 2.29136 42.046 20.013 52.3222 30.2979L50.7451 32.6942L49.3283 31.8488L38.4341 49.1827C37.0727 51.3487 37.6207 54.2377 39.6818 55.7623C42.0839 57.5377 45.5093 56.7885 46.9465 54.1765L56.7971 36.3091L55.6164 35.6036L56.8466 33.3968C57.6308 33.7466 58.4412 34.0235 59.2692 34.2334L57.5521 38.545L64.0793 38.7841V42.0637C68.2364 42.6934 78.4863 44.0956 82.5355 42.9849C88.2552 31.8954 90.7944 18.4854 89.7828 7.80696Z" fill="#0C84DF"/>
<path d="M98.7292 45.0729C96.1458 45.0729 94.0521 44.2969 92.4583 42.7396C90.875 41.1875 90.0833 39.1458 90.0833 36.6146V35.4062C90.0833 35.2552 90.1354 35.125 90.25 35.0104C90.3594 34.901 90.4896 34.8438 90.6458 34.8438H94.8958C95.0469 34.8438 95.1771 34.901 95.2917 35.0104C95.401 35.125 95.4583 35.2552 95.4583 35.4062V36.3438C95.4583 37.5521 95.7552 38.5312 96.3542 39.2812C96.9635 40.0312 97.7552 40.4062 98.7292 40.4062C99.6875 40.4062 100.479 40.0625 101.104 39.3646C101.729 38.6562 102.042 37.7292 102.042 36.5729C102.042 35.7708 101.865 35.0729 101.521 34.4896C101.172 33.8958 100.688 33.3333 100.062 32.8021C99.4479 32.276 98.4583 31.5104 97.0833 30.5104C95.526 29.3854 94.276 28.3958 93.3333 27.5312C92.3854 26.6562 91.5937 25.6094 90.9583 24.3854C90.3177 23.151 90 21.7292 90 20.1146C90 17.5312 90.776 15.4792 92.3333 13.9479C93.8854 12.4219 95.9375 11.6562 98.4792 11.6562C101.062 11.6562 103.146 12.4635 104.729 14.0729C106.323 15.6719 107.125 17.7917 107.125 20.4271V21.5521C107.125 21.7083 107.068 21.8385 106.958 21.9479C106.844 22.0625 106.714 22.1146 106.562 22.1146H102.354C102.198 22.1146 102.068 22.0625 101.958 21.9479C101.844 21.8385 101.792 21.7083 101.792 21.5521V20.3438C101.792 19.125 101.484 18.151 100.875 17.4271C100.276 16.6927 99.4792 16.3229 98.4792 16.3229C97.5469 16.3229 96.7813 16.6562 96.1875 17.3229C95.6042 17.9896 95.3125 18.9219 95.3125 20.1146C95.3125 21.2292 95.6302 22.1719 96.2708 22.9479C96.9063 23.7292 98.1563 24.8021 100.021 26.1771C101.922 27.5833 103.354 28.7292 104.312 29.6146C105.281 30.4896 106.031 31.4635 106.562 32.5312C107.089 33.5885 107.354 34.8438 107.354 36.3021C107.354 38.9427 106.552 41.0677 104.958 42.6771C103.375 44.276 101.297 45.0729 98.7292 45.0729Z" fill="#313638"/>
<path d="M116.083 45.0729C113.5 45.0729 111.406 44.2969 109.813 42.7396C108.229 41.1875 107.438 39.1458 107.438 36.6146V35.4062C107.438 35.2552 107.49 35.125 107.604 35.0104C107.714 34.901 107.844 34.8438 108 34.8438H112.25C112.401 34.8438 112.531 34.901 112.646 35.0104C112.755 35.125 112.813 35.2552 112.813 35.4062V36.3438C112.813 37.5521 113.109 38.5312 113.708 39.2812C114.318 40.0312 115.109 40.4062 116.083 40.4062C117.042 40.4062 117.833 40.0625 118.458 39.3646C119.083 38.6562 119.396 37.7292 119.396 36.5729C119.396 35.7708 119.219 35.0729 118.875 34.4896C118.526 33.8958 118.042 33.3333 117.417 32.8021C116.802 32.276 115.813 31.5104 114.438 30.5104C112.88 29.3854 111.63 28.3958 110.688 27.5312C109.74 26.6562 108.948 25.6094 108.313 24.3854C107.672 23.151 107.354 21.7292 107.354 20.1146C107.354 17.5312 108.13 15.4792 109.688 13.9479C111.24 12.4219 113.292 11.6562 115.833 11.6562C118.417 11.6562 120.5 12.4635 122.083 14.0729C123.677 15.6719 124.479 17.7917 124.479 20.4271V21.5521C124.479 21.7083 124.422 21.8385 124.313 21.9479C124.198 22.0625 124.068 22.1146 123.917 22.1146H119.708C119.552 22.1146 119.422 22.0625 119.313 21.9479C119.198 21.8385 119.146 21.7083 119.146 21.5521V20.3438C119.146 19.125 118.839 18.151 118.229 17.4271C117.63 16.6927 116.833 16.3229 115.833 16.3229C114.901 16.3229 114.135 16.6562 113.542 17.3229C112.958 17.9896 112.667 18.9219 112.667 20.1146C112.667 21.2292 112.984 22.1719 113.625 22.9479C114.26 23.7292 115.51 24.8021 117.375 26.1771C119.276 27.5833 120.708 28.7292 121.667 29.6146C122.635 30.4896 123.385 31.4635 123.917 32.5312C124.443 33.5885 124.708 34.8438 124.708 36.3021C124.708 38.9427 123.906 41.0677 122.313 42.6771C120.729 44.276 118.651 45.0729 116.083 45.0729Z" fill="#313638"/>
</svg>
