<svg width="125" height="57" viewBox="0 0 125 57" fill="none" xmlns="http://www.w3.org/2000/svg">
<path d="M9.33333 12.0107C10.9688 12.0107 12.4219 12.417 13.6875 13.2191C14.9479 14.0264 15.9271 15.167 16.625 16.6357C17.3333 18.0941 17.6875 19.7555 17.6875 21.6149C17.6875 24.4222 16.9427 26.6774 15.4583 28.3857C13.9844 30.0941 12.0312 30.9482 9.60417 30.9482H5.64583C5.48958 30.9482 5.41667 31.0264 5.41667 31.1774V44.1566C5.41667 44.3128 5.35938 44.443 5.25 44.5524C5.13542 44.667 5.00521 44.7191 4.85417 44.7191H0.5625C0.395833 44.7191 0.255208 44.667 0.145833 44.5524C0.0468747 44.443 0 44.3128 0 44.1566V12.5732C0 12.4066 0.0468747 12.2764 0.145833 12.1774C0.255208 12.068 0.395833 12.0107 0.5625 12.0107H9.33333ZM8.4375 26.6982C9.58854 26.6982 10.5104 26.2607 11.2083 25.3857C11.9167 24.5003 12.2708 23.292 12.2708 21.7607C12.2708 20.2087 11.9167 18.9691 11.2083 18.0524C10.5104 17.1357 9.58854 16.6774 8.4375 16.6774H5.64583C5.48958 16.6774 5.41667 16.7555 5.41667 16.9066V26.4691C5.41667 26.6253 5.48958 26.6982 5.64583 26.6982H8.4375Z" fill="#313638"/>
<path d="M32.8329 44.6984C32.4579 44.6984 32.2548 44.5265 32.2287 44.1776L31.3329 39.2817C31.3329 39.1307 31.2391 39.0526 31.0621 39.0526H24.2496C24.0673 39.0526 23.9787 39.1307 23.9787 39.2817L23.0829 44.1776C23.0516 44.5265 22.8537 44.6984 22.4787 44.6984H18.2287C17.7964 44.6984 17.6246 44.5005 17.7079 44.0942L24.6246 12.5526C24.6766 12.2088 24.8798 12.0317 25.2287 12.0317H30.1662C30.51 12.0317 30.7183 12.2088 30.7912 12.5526L37.6871 44.0942V44.2817C37.6871 44.563 37.51 44.6984 37.1662 44.6984H32.8329ZM24.8121 34.5734C24.7808 34.7297 24.8589 34.8026 25.0412 34.8026H30.2287C30.4058 34.8026 30.4839 34.7297 30.4579 34.5734L27.7496 19.8234C27.7183 19.7297 27.6714 19.6776 27.6037 19.6776C27.5464 19.6776 27.5048 19.7297 27.4787 19.8234L24.8121 34.5734Z" fill="#313638"/>
<path d="M55.6164 35.6036L56.7971 36.3091L55.6164 35.6036ZM55.6164 35.6036L56.8466 33.3968L55.6164 35.6036ZM81.5266 42.2247L81.8506 42.1598L81.9951 41.8627C83.1674 39.4537 90.0889 24.5021 88.9345 9.40324L88.8874 8.78739H88.2698H88.0132H87.3515L87.3466 9.44913C87.2747 19.1682 85.8696 30.9133 80.4414 38.7226L65.7569 38.1791L65.0655 38.1535V38.8453V40.6411V41.221L65.6398 41.3013C66.9778 41.4885 70.0339 41.8977 73.1969 42.1725C74.7781 42.3099 76.3934 42.4143 77.8382 42.4399C79.2713 42.4653 80.5797 42.4144 81.5266 42.2247ZM61.0095 33.8845L60.4949 33.8164L60.3028 34.2987L59.332 36.7358L58.9822 37.6139L59.9267 37.6487L79.9193 38.3862L80.2863 38.3998L80.4938 38.0969C84.1328 32.7868 85.7704 25.2213 86.4874 18.5803C87.2069 11.9163 87.0096 6.0742 86.9095 4.13442L86.8808 3.57925L86.3296 3.50765L68.2844 1.16381L67.6883 1.0864L67.5498 1.67122L66.6898 5.30067L66.5461 5.90711L67.1415 6.09127C72.9794 7.89699 77.2308 13.3335 77.2308 19.7331C77.2308 28.2795 69.6857 35.0324 61.0095 33.8845ZM53.8547 35.3304L54.4444 35.6829L54.779 35.0828L56.5748 31.8615L56.5752 31.8606C57.2947 30.5656 56.1668 29.0895 54.7679 29.3447L54.7669 29.3449C54.5986 29.3759 54.375 29.4232 54.142 29.5852C53.9337 29.7299 53.7627 29.9351 53.5882 30.1741C53.3727 30.4694 53.0758 30.9275 52.6235 31.6252C52.3487 32.0491 52.0165 32.5614 51.6105 33.1794L51.2285 33.7608L51.8257 34.1177L53.8547 35.3304ZM43.4645 55.6558L43.4656 55.6556L43.4736 55.6538C43.9716 55.5447 44.4613 55.4374 44.9836 54.9848C45.4606 54.5715 45.9393 53.894 46.6109 52.7682C47.4017 51.4429 48.5258 49.3778 50.2911 46.1346C51.551 43.82 53.1374 40.9053 55.1624 37.2314L55.4732 36.6677L54.9206 36.3374L50.2096 33.5213L49.65 33.1867L49.3031 33.7388L39.2722 49.7019C37.4253 52.6338 40.0274 56.4029 43.4645 55.6558ZM57.4353 8.02647L57.5925 6.76552L56.4656 7.35277C49.2255 11.1258 46.6941 20.2555 51.1061 27.2149L51.6982 28.1488L52.2477 27.1892C53.888 24.3251 55.0678 20.4305 55.8934 16.8352C56.7219 13.227 57.2063 9.86272 57.4353 8.02647ZM75.8899 14.5055L75.8364 14.3775C73.002 7.59152 65.335 4.10432 58.3118 6.55662L57.9148 6.69526L57.8689 7.11334C57.7231 8.44341 57.2751 12.1052 56.3686 16.2205C55.4582 20.354 54.1014 24.8668 52.1686 27.9466L51.9108 28.3573L52.2221 28.729C52.427 28.9736 52.6393 29.2106 52.8648 29.4423L53.2981 29.8875L53.7727 29.4866C55.3628 28.1435 57.6888 29.7716 56.9893 31.7067L56.777 32.294L57.3492 32.5442C65.4121 36.0688 74.7896 31.2571 76.6083 22.6107L76.6128 22.5891H76.6297L76.6824 22.2581L76.7774 21.8068H76.7529C76.819 21.3555 76.8681 20.893 76.8894 20.4173H76.9082V19.9152L76.9187 19.632H76.9078C76.9029 19.0466 76.8623 18.4682 76.7825 17.8683L76.8014 17.8678L76.7261 17.4735L76.6699 17.0882L76.6526 17.0887C76.534 16.4694 76.3744 15.8652 76.1774 15.2798L76.2129 15.279L75.9678 14.692L75.8997 14.5053L75.8899 14.5055ZM58.5212 37.9134L59.8885 34.4801L60.1697 33.774L59.433 33.5872C58.6401 33.3862 57.8658 33.1214 57.1182 32.7879L56.5613 32.5395L56.2643 33.0722L55.0341 35.279L54.7191 35.844L55.2744 36.1759L55.9024 36.5511L46.3627 53.8546L46.3624 53.8551C45.1202 56.1129 42.1566 56.7622 40.0783 55.2264C38.2965 53.9083 37.8233 51.4072 38.9985 49.5374L38.4343 49.1828L38.9985 49.5374L49.5461 32.7551L50.4035 33.2667L50.9512 33.5936L51.3019 33.0607L52.8791 30.6644L53.1776 30.2108L52.7938 29.8267C42.974 19.9985 51.7215 3.07104 65.6075 5.71572L66.2337 5.83498L66.3809 5.21476L67.4432 0.738499L87.1804 3.30213C87.2647 4.52703 87.3264 5.83705 87.3466 7.81376L87.3533 8.47363H88.0132H89.1722C90.0144 18.8315 87.5414 31.6909 82.0802 42.4118C81.1731 42.6186 79.9491 42.7181 78.5218 42.7315C76.9538 42.7461 75.1846 42.6568 73.4016 42.5125C70.1425 42.2487 66.8679 41.8038 64.7459 41.4895V38.7841V38.1414L64.1037 38.1179L58.5212 37.9134Z" fill="#313638" stroke="#0C84DF" stroke-width="1.33333"/>
<path d="M98.7292 45.0734C96.1458 45.0734 94.0521 44.2974 92.4583 42.7401C90.875 41.188 90.0833 39.1463 90.0833 36.6151V35.4067C90.0833 35.2557 90.1354 35.1255 90.25 35.0109C90.3594 34.9015 90.4896 34.8442 90.6458 34.8442H94.8958C95.0469 34.8442 95.1771 34.9015 95.2917 35.0109C95.401 35.1255 95.4583 35.2557 95.4583 35.4067V36.3442C95.4583 37.5526 95.7552 38.5317 96.3542 39.2817C96.9635 40.0317 97.7552 40.4067 98.7292 40.4067C99.6875 40.4067 100.479 40.063 101.104 39.3651C101.729 38.6567 102.042 37.7297 102.042 36.5734C102.042 35.7713 101.865 35.0734 101.521 34.4901C101.172 33.8963 100.688 33.3338 100.062 32.8026C99.4479 32.2765 98.4583 31.5109 97.0833 30.5109C95.526 29.3859 94.276 28.3963 93.3333 27.5317C92.3854 26.6567 91.5937 25.6099 90.9583 24.3859C90.3177 23.1515 90 21.7297 90 20.1151C90 17.5317 90.776 15.4797 92.3333 13.9484C93.8854 12.4224 95.9375 11.6567 98.4792 11.6567C101.062 11.6567 103.146 12.464 104.729 14.0734C106.323 15.6724 107.125 17.7922 107.125 20.4276V21.5526C107.125 21.7088 107.068 21.839 106.958 21.9484C106.844 22.063 106.714 22.1151 106.562 22.1151H102.354C102.198 22.1151 102.068 22.063 101.958 21.9484C101.844 21.839 101.792 21.7088 101.792 21.5526V20.3442C101.792 19.1255 101.484 18.1515 100.875 17.4276C100.276 16.6932 99.4792 16.3234 98.4792 16.3234C97.5469 16.3234 96.7813 16.6567 96.1875 17.3234C95.6042 17.9901 95.3125 18.9224 95.3125 20.1151C95.3125 21.2297 95.6302 22.1724 96.2708 22.9484C96.9063 23.7297 98.1563 24.8026 100.021 26.1776C101.922 27.5838 103.354 28.7297 104.312 29.6151C105.281 30.4901 106.031 31.464 106.562 32.5317C107.089 33.589 107.354 34.8442 107.354 36.3026C107.354 38.9432 106.552 41.0682 104.958 42.6776C103.375 44.2765 101.297 45.0734 98.7292 45.0734Z" fill="#313638"/>
<path d="M116.083 45.0734C113.5 45.0734 111.406 44.2974 109.813 42.7401C108.229 41.188 107.438 39.1463 107.438 36.6151V35.4067C107.438 35.2557 107.49 35.1255 107.604 35.0109C107.714 34.9015 107.844 34.8442 108 34.8442H112.25C112.401 34.8442 112.531 34.9015 112.646 35.0109C112.755 35.1255 112.813 35.2557 112.813 35.4067V36.3442C112.813 37.5526 113.109 38.5317 113.708 39.2817C114.318 40.0317 115.109 40.4067 116.083 40.4067C117.042 40.4067 117.833 40.063 118.458 39.3651C119.083 38.6567 119.396 37.7297 119.396 36.5734C119.396 35.7713 119.219 35.0734 118.875 34.4901C118.526 33.8963 118.042 33.3338 117.417 32.8026C116.802 32.2765 115.813 31.5109 114.438 30.5109C112.88 29.3859 111.63 28.3963 110.688 27.5317C109.74 26.6567 108.948 25.6099 108.313 24.3859C107.672 23.1515 107.354 21.7297 107.354 20.1151C107.354 17.5317 108.13 15.4797 109.688 13.9484C111.24 12.4224 113.292 11.6567 115.833 11.6567C118.417 11.6567 120.5 12.464 122.083 14.0734C123.677 15.6724 124.479 17.7922 124.479 20.4276V21.5526C124.479 21.7088 124.422 21.839 124.313 21.9484C124.198 22.063 124.068 22.1151 123.917 22.1151H119.708C119.552 22.1151 119.422 22.063 119.313 21.9484C119.198 21.839 119.146 21.7088 119.146 21.5526V20.3442C119.146 19.1255 118.839 18.1515 118.229 17.4276C117.63 16.6932 116.833 16.3234 115.833 16.3234C114.901 16.3234 114.135 16.6567 113.542 17.3234C112.958 17.9901 112.667 18.9224 112.667 20.1151C112.667 21.2297 112.984 22.1724 113.625 22.9484C114.26 23.7297 115.51 24.8026 117.375 26.1776C119.276 27.5838 120.708 28.7297 121.667 29.6151C122.635 30.4901 123.385 31.464 123.917 32.5317C124.443 33.589 124.708 34.8442 124.708 36.3026C124.708 38.9432 123.906 41.0682 122.313 42.6776C120.729 44.2765 118.651 45.0734 116.083 45.0734Z" fill="#313638"/>
</svg>
