<svg width="50" height="50" viewBox="0 0 50 50" fill="none" xmlns="http://www.w3.org/2000/svg">
<rect width="50" height="50" fill="#E8E9EB"/>
<path d="M11.4678 13.4248C11.4678 12.3446 12.3721 11.4678 13.4869 11.4678H36.769C37.8842 11.4678 38.7881 12.3446 38.7881 13.4248V36.8314C38.7881 37.9119 37.8842 38.7881 36.769 38.7881H13.4869C12.3722 38.7881 11.4678 37.9121 11.4678 36.8317V13.4245V13.4248Z" fill="#0C84DF"/>
<path d="M19.7699 34.3314V22.0317H15.6816V34.3314H19.7703H19.7699ZM17.7266 20.3527C19.152 20.3527 20.0393 19.4082 20.0393 18.2279C20.0127 17.0207 19.152 16.1025 17.7537 16.1025C16.3545 16.1025 15.4407 17.0207 15.4407 18.2278C15.4407 19.4081 16.3277 20.3526 17.6998 20.3526H17.7263L17.7266 20.3527ZM22.0328 34.3314H26.1207V27.4634C26.1207 27.0963 26.1474 26.7282 26.2554 26.466C26.5508 25.7313 27.2234 24.9707 28.3531 24.9707C29.832 24.9707 30.424 26.0985 30.424 27.7521V34.3314H34.5118V27.2791C34.5118 23.5013 32.4952 21.7433 29.8055 21.7433C27.6004 21.7433 26.6319 22.9758 26.0938 23.8153H26.121V22.0321H22.033C22.0863 23.186 22.0327 34.3318 22.0327 34.3318L22.0328 34.3314Z" fill="#E8E9EB"/>
</svg>
