<svg width="94" height="102" viewBox="0 0 94 102" fill="none" xmlns="http://www.w3.org/2000/svg">
<path d="M78.0899 74.2708C71.8503 75.5208 54.8711 73.276 50.1055 72.6094V69.401L76.9857 70.3958C87.2201 56.125 89.7826 34.5 89.9128 16.8906H90.3711C92.4076 43.526 80.1732 69.9896 78.0899 74.2708ZM41.5117 61.7188C57.7305 63.8646 71.8399 51.2396 71.8399 35.2552C71.8399 23.2812 63.8867 13.1198 52.9753 9.74479L54.5117 3.26042L86.7513 7.44792C87.1055 14.3125 88.1524 48.9219 75.4961 67.3906L39.7774 66.0729L41.5117 61.7188ZM29.4961 62.099L25.8711 59.9323C29.7721 53.9948 29.6836 53.7917 30.7305 53.599C32.2721 53.3177 33.4857 54.9375 32.7044 56.3438L29.4961 62.099ZM10.069 98.2708C4.96485 99.3802 1.10027 93.7812 3.83985 89.4323L21.7617 60.9115L30.1784 65.9427C12.7617 97.5417 13.6107 97.4948 10.069 98.2708ZM34.1003 14.1927C33.2878 20.7083 30.6628 38.0625 24.9805 47.9844C17.4753 36.1458 21.7774 20.6146 34.1003 14.1927ZM67.0586 26.1458L37.6263 26.8073L37.6471 27.7917L67.444 27.125C67.8711 28.2969 68.2096 29.5156 68.4492 30.7708L35.8503 31.6771L35.8815 32.6667L68.6211 31.75C68.7982 32.9635 68.8815 34.1146 68.8815 35.2865H35.0378V36.2656H68.8555C68.819 37.2552 68.7096 38.2188 68.5586 39.1667H33.2982V40.151H68.3711C65.2774 54.8594 49.319 63.0469 35.6055 57.0521C37.2774 52.4271 31.7253 48.599 27.9701 51.7708C27.5899 51.3802 27.2305 50.9792 26.8815 50.5625C34.0169 39.1927 36.7149 17.6354 37.2409 12.8385C49.1888 8.66667 62.2357 14.599 67.0586 26.1458ZM93.0742 13.9479H89.9128C89.8711 9.86458 89.7305 7.35417 89.543 4.84375L52.2513 0L50.1055 9.04167C24.1263 4.09375 7.78777 35.7552 26.1471 54.1302L23.3294 58.4115L20.7982 56.901L1.33464 87.8698C-1.09765 91.7396 -0.118483 96.901 3.56381 99.625C7.85548 102.797 13.9753 101.458 16.543 96.7917L34.1419 64.8698L32.0326 63.6094L34.2305 59.6667C35.6315 60.2917 37.0794 60.7865 38.5586 61.1615L35.4909 68.8646L47.1524 69.2917V75.151C54.5794 76.276 72.8919 78.7812 80.1263 76.7969C90.3451 56.9844 94.8815 33.026 93.0742 13.9479Z" fill="#0C84DF"/>
</svg>
