<svg width="50" height="50" viewBox="0 0 50 50" fill="none" xmlns="http://www.w3.org/2000/svg">
<rect width="50" height="50" fill="#E8E9EB"/>
<path d="M37.6472 17.0078C36.8217 17.3631 35.9537 17.6105 35.0649 17.7439C35.4805 17.6726 36.0919 16.9247 36.3353 16.6219C36.7051 16.1652 36.9869 15.6439 37.1664 15.0844C37.1664 15.0428 37.208 14.9835 37.1664 14.9538C37.1455 14.9423 37.122 14.9364 37.0981 14.9364C37.0743 14.9364 37.0508 14.9423 37.0299 14.9538C36.0647 15.4764 35.0375 15.8753 33.9726 16.1411C33.9355 16.1524 33.896 16.1534 33.8583 16.144C33.8207 16.1346 33.7863 16.1151 33.7589 16.0876C33.676 15.9889 33.5868 15.8957 33.4918 15.8086C33.0574 15.4195 32.5646 15.1009 32.0314 14.8647C31.3117 14.5694 30.5342 14.4416 29.7578 14.4907C29.0044 14.5383 28.2689 14.7404 27.5969 15.0844C26.9352 15.447 26.3537 15.9397 25.8872 16.5329C25.3966 17.1433 25.0424 17.8518 24.8484 18.6106C24.6884 19.3324 24.6703 20.0784 24.7949 20.8071C24.7949 20.9317 24.7949 20.9495 24.6881 20.9317C20.4554 20.3084 16.9826 18.8065 14.1451 15.583C14.0204 15.4406 13.9551 15.4406 13.8542 15.583C12.6194 17.4589 13.219 20.4271 14.7624 21.8934C14.9702 22.0893 15.1839 22.2793 15.4095 22.4574C14.7018 22.4071 14.0114 22.2154 13.3793 21.8934C13.2605 21.8163 13.1952 21.8578 13.1893 22.0003C13.1725 22.1978 13.1725 22.3964 13.1893 22.5939C13.3132 23.5405 13.6862 24.4373 14.2703 25.1924C14.8544 25.9476 15.6286 26.5341 16.5137 26.8919C16.7294 26.9843 16.9543 27.0539 17.1845 27.0997C16.5294 27.2286 15.8574 27.2487 15.1958 27.159C15.0533 27.1293 14.9999 27.2065 15.0533 27.343C15.926 29.7176 17.8197 30.4418 19.2088 30.8455C19.3988 30.8752 19.5887 30.8752 19.8024 30.9227C19.8024 30.9227 19.8024 30.9227 19.7668 30.9583C19.3572 31.7063 17.701 32.2109 16.9411 32.4721C15.5542 32.9703 14.0754 33.1607 12.6075 33.0301C12.376 32.9945 12.3226 33.0004 12.2632 33.0301C12.2038 33.0598 12.2632 33.1251 12.3285 33.1845C12.6253 33.3804 12.9222 33.5525 13.2308 33.7187C14.1498 34.22 15.1214 34.6182 16.1278 34.906C21.34 36.3426 27.2051 35.2859 31.1172 31.3976C34.1923 28.3463 35.2727 24.1374 35.2727 19.9225C35.2727 19.7623 35.4686 19.6673 35.5814 19.5842C36.3594 18.978 37.0452 18.2621 37.6176 17.4589C37.7167 17.3392 37.7675 17.1868 37.76 17.0315C37.76 16.9425 37.76 16.9603 37.6472 17.0078Z" fill="#0C84DF"/>
</svg>
